<svg version="1.1" id="Layer_1" xmlns="http://www.w3.org/2000/svg" xmlns:xlink="http://www.w3.org/1999/xlink" x="0px" y="0px"
	 width="100%" viewBox="0 0 200 200" enable-background="new 0 0 200 200" xml:space="preserve">
<path fill="#DD2351" opacity="1.000000" stroke="none" 
	d="
M1.000001,103.000000 
	C1.000000,91.979103 1.000000,80.958214 1.312665,69.329857 
	C1.997143,68.396103 2.466553,68.133453 2.726788,67.734398 
	C16.526600,46.573360 30.319002,25.407452 44.057156,4.206394 
	C44.637859,3.310236 44.697575,2.076481 45.000000,1.000000 
	C52.354252,1.000000 59.708508,1.000000 67.502678,1.354411 
	C67.117622,3.139269 66.289955,4.568168 65.468155,6.000441 
	C62.597263,11.003988 59.728401,16.008699 56.605560,21.212132 
	C55.160023,22.307514 54.013832,23.274199 52.768555,24.089550 
	C27.878927,40.386131 13.855450,63.351318 10.178881,92.919250 
	C8.707723,94.357353 7.600105,95.789551 6.399673,97.139191 
	C4.634543,99.123711 2.803160,101.049301 1.000001,103.000000 
z"/>
<path fill="#E0204F" opacity="1.000000" stroke="none" 
	d="
M157.000000,201.000000 
	C150.312363,201.000000 143.624710,201.000000 136.446594,200.638687 
	C137.337265,197.867157 138.740250,195.469131 140.094864,193.044067 
	C142.556198,188.637726 144.988770,184.215302 147.442307,179.703430 
	C147.451248,179.607254 147.400589,179.415756 147.676956,179.352478 
	C148.302383,178.861954 148.651443,178.434708 149.268204,177.952118 
	C149.760330,177.619568 149.984772,177.342361 150.449249,177.033524 
	C150.689301,177.001877 151.043716,176.671921 151.258972,176.667725 
	C151.772156,176.530609 151.919556,176.301025 151.949005,175.986053 
	C151.981598,175.997360 151.980148,175.928406 152.241547,175.898209 
	C152.702637,175.595917 152.902344,175.323822 153.061127,175.035675 
	C153.020218,175.019623 153.062576,175.096634 153.388214,175.058868 
	C154.840881,174.038040 155.967911,173.054977 157.049896,172.046387 
	C157.004883,172.020859 157.068085,172.102844 157.372910,172.048462 
	C158.404037,171.310104 159.130341,170.626099 159.909058,169.951645 
	C159.961487,169.961197 159.964813,169.854691 160.205017,169.825714 
	C160.743759,169.606293 160.895142,169.334015 161.157272,168.907928 
	C161.612747,168.556931 161.810257,168.277908 162.259888,167.938721 
	C162.681076,167.589615 162.850143,167.300674 163.300873,166.939575 
	C164.080673,166.291504 164.578812,165.715576 165.377106,165.065369 
	C166.147873,164.352921 166.618484,163.714737 167.051071,163.037643 
	C167.013031,162.998718 167.068802,163.091949 167.327072,163.021637 
	C167.758865,162.653107 167.932388,162.354889 168.327179,161.950470 
	C168.790649,161.606949 168.942154,161.321457 169.310684,160.871521 
	C170.758163,159.179092 171.897949,157.602997 173.016983,156.015945 
	C172.996246,156.005005 173.027832,156.040970 173.258209,155.940796 
	C173.626526,155.546036 173.764435,155.251465 173.939819,154.968536 
	C173.977295,154.980164 173.954102,154.905197 174.184814,154.857224 
	C174.730087,154.609711 174.825562,154.334229 174.848312,153.813263 
	C174.994690,153.643707 175.109634,153.210709 175.363953,153.103851 
	C175.747787,152.667328 175.877319,152.337646 176.003433,152.003983 
	C176.000000,152.000000 176.007767,152.006409 176.237946,151.933929 
	C176.752090,151.633286 176.848129,151.342941 176.980469,150.720459 
	C185.102814,138.806427 189.199890,125.747787 191.779373,111.878448 
	C195.035446,108.156265 198.017715,104.578133 201.000000,101.000000 
	C201.000000,111.687561 201.000000,122.375122 200.675323,133.623627 
	C199.664948,134.878647 198.839325,135.480896 198.314484,136.280533 
	C189.919815,149.070679 181.517227,161.856110 173.221832,174.710632 
	C169.993240,179.713638 167.026016,184.885330 163.838196,190.215515 
	C163.781662,190.615646 163.826691,190.780472 163.747467,191.048035 
	C163.623184,191.150787 163.509964,191.452774 163.330307,191.459610 
	C163.150650,191.466446 162.937119,191.755753 162.682068,191.834808 
	C162.170929,192.317810 161.914825,192.721741 161.399109,193.369919 
	C159.759644,196.076111 158.379822,198.538055 157.000000,201.000000 
z"/>
<path fill="#10BAEF" opacity="1.000000" stroke="none" 
	d="
M44.531731,1.000000 
	C44.697575,2.076481 44.637859,3.310236 44.057156,4.206394 
	C30.319002,25.407452 16.526600,46.573360 2.726788,67.734398 
	C2.466553,68.133453 1.997143,68.396103 1.312665,68.861198 
	C1.000000,58.979107 1.000000,48.958210 1.350225,38.437443 
	C4.531854,34.174809 7.604583,30.567244 10.144853,26.617252 
	C15.575982,18.172113 20.731554,9.549761 26.000000,1.000000 
	C32.021152,1.000000 38.042305,1.000000 44.531731,1.000000 
z"/>
<path fill="#09BEF3" opacity="1.000000" stroke="none" 
	d="
M163.509979,191.452774 
	C163.509964,191.452774 163.623184,191.150787 164.020950,191.045105 
	C164.642639,190.665878 164.866562,190.392334 165.056824,190.109192 
	C165.023148,190.099609 165.091263,190.085190 165.300232,189.961395 
	C165.770554,189.608368 165.897202,189.319962 166.064240,188.677063 
	C171.991516,179.831863 177.726486,171.270355 183.500626,162.735352 
	C189.313461,154.143173 195.165268,145.577362 201.000000,137.000000 
	C201.000000,146.354233 201.000000,155.708450 200.667084,165.603058 
	C194.715027,174.183411 188.965851,182.137039 183.540009,190.305405 
	C181.331665,193.630020 179.825607,197.421143 178.000000,201.000000 
	C172.311966,201.000000 166.623917,201.000000 160.486969,200.639648 
	C161.195374,197.337128 162.352676,194.394958 163.509979,191.452774 
z"/>
<path fill="#DE2050" opacity="1.000000" stroke="none" 
	d="
M177.000000,0.999998 
	C183.687637,1.000000 190.375290,1.000000 197.619202,1.359976 
	C189.279312,15.593646 180.383133,29.467339 171.267746,43.120144 
	C166.765930,38.618584 162.483337,34.337910 158.396149,29.735365 
	C164.727707,19.942326 170.863846,10.471162 177.000000,0.999998 
z"/>
<path fill="#16B8EB" opacity="1.000000" stroke="none" 
	d="
M4.000000,201.000000 
	C3.013456,201.000000 2.026912,201.000000 1.000000,201.000000 
	C1.000000,191.312469 1.000000,181.624893 1.310082,171.331055 
	C2.934365,169.028046 4.338964,167.393021 5.546967,165.623749 
	C10.513197,158.350067 15.419645,151.035568 20.537132,144.013519 
	C24.015608,149.194046 27.305033,154.097153 30.397427,159.308746 
	C26.303848,165.557129 22.322794,171.443665 18.531786,177.450134 
	C13.608764,185.250168 8.836919,193.145615 4.000000,201.000000 
z"/>
<path fill="#EC1949" opacity="1.000000" stroke="none" 
	d="
M24.000000,201.000000 
	C18.645071,201.000000 13.290141,201.000000 7.485629,200.641876 
	C14.615946,188.638031 22.131512,176.948730 29.924671,165.447525 
	C30.428701,164.703674 33.158875,165.095963 34.694416,165.526764 
	C36.269447,165.968643 37.648975,167.107346 39.334743,167.976181 
	C39.555420,168.011276 40.002007,167.998459 40.001003,167.999237 
	C40.000000,168.000000 40.001389,167.997910 39.991852,168.208054 
	C39.982311,168.418198 40.070789,168.829514 40.155869,169.096222 
	C40.565834,169.511398 40.890717,169.659882 41.218956,169.821381 
	C41.222305,169.834427 41.253120,169.825607 41.182053,170.236160 
	C40.295444,173.098312 39.893105,175.799469 38.590149,177.956665 
	C33.890812,185.736862 28.888124,193.333832 24.000000,201.000000 
z"/>
<path fill="#04BFF5" opacity="1.000000" stroke="none" 
	d="
M201.000000,4.000000 
	C201.000000,12.354232 201.000000,20.708464 200.657028,29.588783 
	C199.231735,31.058657 197.887421,31.825750 197.111588,32.976227 
	C193.367813,38.527802 189.943237,44.301582 186.048218,49.740738 
	C184.544006,51.841286 182.095566,53.265671 179.955017,54.966248 
	C179.832733,54.934383 179.589676,54.997814 179.417755,54.774582 
	C179.203033,54.368450 179.160248,54.185543 179.318375,53.873852 
	C179.456863,53.382507 179.394440,53.019947 179.332016,52.657387 
	C179.161255,52.900795 178.990494,53.144203 178.558044,53.151787 
	C178.168564,52.718914 178.040787,52.521870 177.919769,52.281807 
	C177.926559,52.238796 177.788589,52.154789 177.571655,51.905609 
	C177.289536,51.446033 177.224380,51.235638 177.314362,50.903038 
	C177.245438,50.565464 177.021347,50.350098 176.791397,50.160728 
	C176.785522,50.186729 176.732590,50.180466 176.785248,49.853287 
	C176.399399,49.192127 175.960876,48.858147 175.477386,48.518421 
	C175.432434,48.512672 175.346603,48.483532 175.492706,48.098984 
	C174.742386,44.141697 175.861649,41.274223 177.950089,38.231358 
	C183.241577,30.521591 188.014160,22.457926 193.158249,14.643750 
	C195.578003,10.968008 198.374313,7.540172 201.000000,4.000000 
z"/>
<path fill="#DB2352" opacity="1.000000" stroke="none" 
	d="
M20.348083,143.736084 
	C15.419645,151.035568 10.513197,158.350067 5.546967,165.623749 
	C4.338964,167.393021 2.934365,169.028046 1.310082,170.862396 
	C1.000000,159.979111 1.000000,148.958206 1.208731,137.204849 
	C5.042663,131.488907 8.667865,126.505424 12.416369,121.774544 
	C12.725124,122.348312 12.910576,122.669487 13.063293,123.325478 
	C13.299679,124.255417 13.568798,124.850525 13.798594,125.607468 
	C13.759272,125.769287 13.996940,126.002640 13.981049,126.377640 
	C14.914436,129.188629 15.863715,131.624634 16.829569,134.407745 
	C17.010683,135.186005 17.175222,135.617157 17.309809,136.278595 
	C17.383371,136.848938 17.612429,137.031647 17.984829,137.031418 
	C18.002634,137.005829 17.947042,137.033920 17.977074,137.392288 
	C18.787430,139.745804 19.567757,141.740936 20.348083,143.736084 
z"/>
<path fill="#18B8EB" opacity="1.000000" stroke="none" 
	d="
M176.531433,0.999998 
	C170.863846,10.471162 164.727707,19.942326 158.153442,29.571720 
	C153.083176,26.673014 148.451050,23.616077 143.965958,20.210262 
	C145.573929,17.508463 147.106384,15.196404 148.479553,12.793323 
	C150.707932,8.893586 152.831940,4.934205 155.000000,1.000000 
	C162.020950,1.000000 169.041901,1.000000 176.531433,0.999998 
z"/>
<path fill="#DB2352" opacity="1.000000" stroke="none" 
	d="
M201.000000,34.000000 
	C201.000000,45.020893 201.000000,56.041790 200.671570,67.627953 
	C196.898712,72.701546 193.454269,77.209877 189.939514,81.367310 
	C187.335602,73.861069 184.802002,66.705742 182.525330,59.311378 
	C187.613541,51.851994 192.394485,44.596996 197.320648,37.441956 
	C198.250931,36.090740 199.758698,35.137096 201.000000,34.000000 
z"/>
<path fill="#17B8EA" opacity="1.000000" stroke="none" 
	d="
M47.999996,201.000000 
	C41.312355,201.000000 34.624710,201.000000 27.626583,200.692383 
	C33.203678,191.306366 39.091251,182.227951 45.193443,173.180145 
	C45.408058,173.210754 45.840862,173.186661 46.027908,173.444534 
	C47.443581,174.505966 48.672211,175.309509 50.081699,176.367996 
	C51.191666,177.034286 52.120770,177.445663 53.170387,177.990295 
	C53.290905,178.123535 53.639374,178.211273 53.826443,178.489807 
	C55.349411,179.488007 56.685310,180.207657 58.278385,181.259171 
	C58.753292,181.766907 58.971031,181.942780 58.986088,182.447266 
	C55.188934,188.850555 51.594463,194.925278 47.999996,201.000000 
z"/>
<path fill="#E11E4E" opacity="1.000000" stroke="none" 
	d="
M1.000000,35.000000 
	C1.000000,23.756021 1.000000,12.512042 1.000000,1.000000 
	C8.018546,1.000000 15.040491,1.000000 22.683613,1.355385 
	C17.997816,10.252023 12.784220,18.853563 7.330740,27.300226 
	C5.540330,30.073317 3.127955,32.444843 1.000000,35.000000 
z"/>
<path fill="#DA2452" opacity="1.000000" stroke="none" 
	d="
M154.531433,1.000000 
	C152.831940,4.934205 150.707932,8.893586 148.479553,12.793323 
	C147.106384,15.196404 145.573929,17.508463 143.626938,20.060272 
	C137.378098,17.938723 131.615326,15.618281 126.018555,12.974491 
	C128.456375,8.767427 130.728195,4.883713 133.000000,1.000000 
	C140.020950,1.000000 147.041901,1.000000 154.531433,1.000000 
z"/>
<path fill="#E51C4C" opacity="1.000000" stroke="none" 
	d="
M201.000000,169.000000 
	C201.000000,179.577713 201.000000,190.155411 201.000000,201.000000 
	C194.314972,201.000000 187.626404,201.000000 180.539825,200.658447 
	C184.202637,193.845596 188.161423,187.307114 192.360931,180.927124 
	C195.057281,176.830719 198.108093,172.967667 201.000000,169.000000 
z"/>
<path fill="#DA2452" opacity="1.000000" stroke="none" 
	d="
M48.468620,201.000000 
	C51.594463,194.925278 55.188934,188.850555 59.146393,182.474945 
	C59.849792,182.160431 60.190201,182.146835 60.700562,182.365067 
	C61.235195,182.669495 61.599884,182.742081 62.166245,182.946228 
	C62.367924,183.077805 62.849495,183.072479 62.963081,183.270905 
	C63.076664,183.469315 63.470791,183.699463 63.470791,183.699463 
	C63.470791,183.699463 63.924114,183.646622 64.142075,183.811722 
	C64.540848,183.999985 64.721664,184.023148 65.097366,184.335236 
	C66.838348,185.116364 68.384438,185.608536 69.958801,186.056732 
	C69.987091,186.012756 69.900826,186.071869 69.992554,186.273834 
	C70.084290,186.475784 70.483658,186.667389 70.483658,186.667389 
	C70.483658,186.667389 70.921753,186.602097 71.233871,186.759140 
	C72.006599,186.960083 72.467216,187.003983 73.103577,187.279083 
	C73.835846,187.599380 74.392372,187.688461 75.147842,187.948425 
	C75.685768,188.150925 76.024750,188.182556 76.432381,188.418457 
	C76.501022,188.622742 76.828003,188.903580 76.737991,189.235535 
	C74.765320,193.378311 72.882660,197.189163 71.000000,201.000000 
	C63.645748,201.000000 56.291500,201.000000 48.468620,201.000000 
z"/>
<path fill="#1DB7E8" opacity="1.000000" stroke="none" 
	d="
M56.858768,21.012970 
	C59.728401,16.008699 62.597263,11.003988 65.468155,6.000441 
	C66.289955,4.568168 67.117622,3.139269 67.971298,1.354411 
	C74.687645,1.000000 81.375290,1.000000 88.505737,1.356095 
	C87.266090,5.037100 85.583649,8.362011 83.577240,11.767927 
	C74.455101,14.903612 65.656937,17.958290 56.858768,21.012970 
z"/>
<path fill="#1DB6E8" opacity="1.000000" stroke="none" 
	d="
M12.293067,121.521950 
	C8.667865,126.505424 5.042663,131.488907 1.208731,136.736191 
	C1.000000,125.979103 1.000000,114.958214 1.000001,103.468658 
	C2.803160,101.049301 4.634543,99.123711 6.399673,97.139191 
	C7.600105,95.789551 8.707723,94.357353 10.158257,93.334656 
	C11.070804,102.978806 11.681936,112.250374 12.293067,121.521950 
z"/>
<path fill="#1CB7E6" opacity="1.000000" stroke="none" 
	d="
M190.009842,81.718208 
	C193.454269,77.209877 196.898712,72.701546 200.671570,68.096611 
	C201.000000,78.687561 201.000000,89.375122 201.000000,100.531342 
	C198.017715,104.578133 195.035446,108.156265 191.779648,111.455673 
	C191.007370,101.357361 190.508606,91.537788 190.009842,81.718208 
z"/>
<path fill="#1DB7E8" opacity="1.000000" stroke="none" 
	d="
M132.531433,1.000000 
	C130.728195,4.883713 128.456375,8.767427 125.614639,12.885645 
	C119.083260,12.049337 113.121819,10.978527 107.326523,9.563683 
	C108.661781,6.479766 109.830894,3.739883 111.000000,1.000000 
	C118.020950,1.000000 125.041901,1.000000 132.531433,1.000000 
z"/>
<path fill="#D72653" opacity="1.000000" stroke="none" 
	d="
M110.531418,1.000000 
	C109.830894,3.739883 108.661781,6.479766 106.943939,9.633280 
	C98.897209,10.593580 91.399208,11.140251 83.901207,11.686922 
	C85.583649,8.362011 87.266090,5.037100 88.974266,1.356095 
	C96.020950,1.000000 103.041893,1.000000 110.531418,1.000000 
z"/>
<path fill="#07BEF3" opacity="1.000000" stroke="none" 
	d="
M133.000000,201.000000 
	C127.645073,201.000000 122.290138,201.000000 116.595337,200.681992 
	C120.769798,188.701736 131.944946,188.513748 142.499374,184.410248 
	C138.820801,190.834518 135.910400,195.917267 133.000000,201.000000 
z"/>
<path fill="#DA2453" opacity="1.000000" stroke="none" 
	d="
M114.000000,201.000000 
	C106.979050,201.000000 99.958107,201.000000 92.527580,200.650330 
	C93.567085,197.592529 95.016159,194.884369 96.881706,192.106888 
	C101.858742,191.685562 106.419312,191.333572 111.356766,191.049347 
	C112.485710,190.998871 113.237785,190.880646 114.424065,190.819336 
	C115.730339,190.737183 116.602409,190.598099 117.747169,190.617340 
	C117.601006,192.327896 117.325760,193.938217 116.727486,195.417938 
	C115.953140,197.333130 114.921089,199.144135 114.000000,201.000000 
z"/>
<path fill="#707BAA" opacity="1.000000" stroke="none" 
	d="
M201.000000,136.625000 
	C195.165268,145.577362 189.313461,154.143173 183.500626,162.735352 
	C177.726486,171.270355 171.991516,179.831863 165.861679,188.804779 
	C165.238525,189.461090 165.107605,189.746887 165.091263,190.085190 
	C165.091263,190.085190 165.023148,190.099609 164.768890,190.073898 
	C164.323013,190.025528 164.131393,190.002853 163.939758,189.980194 
	C167.026016,184.885330 169.993240,179.713638 173.221832,174.710632 
	C181.517227,161.856110 189.919815,149.070679 198.314484,136.280533 
	C198.839325,135.480896 199.664948,134.878647 200.675323,134.092285 
	C201.000000,134.750000 201.000000,135.500000 201.000000,136.625000 
z"/>
<path fill="#B43868" opacity="1.000000" stroke="none" 
	d="
M39.114067,167.941086 
	C37.648975,167.107346 36.269447,165.968643 34.694416,165.526764 
	C33.158875,165.095963 30.428701,164.703674 29.924671,165.447525 
	C22.131512,176.948730 14.615946,188.638031 7.018023,200.641876 
	C6.250000,201.000000 5.500000,201.000000 4.375000,201.000000 
	C8.836919,193.145615 13.608764,185.250168 18.531786,177.450134 
	C22.322794,171.443665 26.303848,165.557129 30.552120,159.451675 
	C31.299599,159.454208 31.695356,159.622330 32.078323,159.867355 
	C32.065536,159.944260 32.221413,159.947754 32.249279,160.163773 
	C32.436581,160.660995 32.677891,160.798264 33.008011,160.886734 
	C33.014942,160.981857 33.204586,161.002258 33.242882,161.211426 
	C33.414925,161.716629 33.643932,161.854675 33.967125,161.927414 
	C33.966038,162.020081 34.150890,162.033463 34.186150,162.251266 
	C34.394184,162.746414 34.643841,162.878113 34.970024,162.941467 
	C34.969666,163.018799 35.123928,163.029709 35.160641,163.260101 
	C35.338749,163.814987 35.586449,163.975479 35.945503,164.010742 
	C35.950554,164.049500 36.028046,164.059814 36.086708,164.287994 
	C36.350765,164.787338 36.623581,164.923065 37.052002,165.187286 
	C37.435722,165.652100 37.731255,165.852936 38.089531,166.277466 
	C38.358532,166.769180 38.630535,166.894104 38.970909,166.950500 
	C38.973534,167.025085 39.122707,167.030472 39.116402,167.258087 
	C39.110100,167.485703 39.114067,167.941086 39.114067,167.941086 
z"/>
<path fill="#539DC9" opacity="1.000000" stroke="none" 
	d="
M201.000000,3.500000 
	C198.374313,7.540172 195.578003,10.968008 193.158249,14.643750 
	C188.014160,22.457926 183.241577,30.521591 177.950089,38.231358 
	C175.861649,41.274223 174.742386,44.141697 175.247498,47.905434 
	C173.733124,46.511299 172.610046,44.926170 171.486969,43.341034 
	C180.383133,29.467339 189.279312,15.593646 198.087738,1.359976 
	C199.268890,1.263320 201.612228,-0.085014 201.000000,3.500000 
z"/>
<path fill="#06BFF4" opacity="1.000000" stroke="none" 
	d="
M90.000000,201.000000 
	C84.645073,201.000000 79.290138,201.000000 73.487572,200.643631 
	C77.276611,190.813934 83.048866,188.896439 91.810493,194.051636 
	C91.206757,196.367691 90.603378,198.683853 90.000000,201.000000 
z"/>
<path fill="#50A4CE" opacity="1.000000" stroke="none" 
	d="
M114.333328,201.000000 
	C114.921089,199.144135 115.953140,197.333130 116.727486,195.417938 
	C117.325760,193.938217 117.601006,192.327896 117.700912,190.549194 
	C117.381950,190.322754 117.367485,190.160248 117.656036,190.163818 
	C118.310677,190.054199 118.676773,189.941010 119.430847,189.867355 
	C129.023682,186.537796 138.228516,183.168701 147.433365,179.799591 
	C144.988770,184.215302 142.556198,188.637726 140.094864,193.044067 
	C138.740250,195.469131 137.337265,197.867157 135.978058,200.638687 
	C135.250000,201.000000 134.500000,201.000000 133.375000,201.000000 
	C135.910400,195.917267 138.820801,190.834518 142.499374,184.410248 
	C131.944946,188.513748 120.769798,188.701736 116.127731,200.681992 
	C115.555557,201.000000 115.111107,201.000000 114.333328,201.000000 
z"/>
<path fill="#6F79AA" opacity="1.000000" stroke="none" 
	d="
M201.000000,168.625000 
	C198.108093,172.967667 195.057281,176.830719 192.360931,180.927124 
	C188.161423,187.307114 184.202637,193.845596 180.070923,200.658447 
	C179.555557,201.000000 179.111099,201.000000 178.333328,201.000000 
	C179.825607,197.421143 181.331665,193.630020 183.540009,190.305405 
	C188.965851,182.137039 194.715027,174.183411 200.667084,166.071716 
	C201.000000,166.750000 201.000000,167.500000 201.000000,168.625000 
z"/>
<path fill="#5791C3" opacity="1.000000" stroke="none" 
	d="
M1.000000,35.375000 
	C3.127955,32.444843 5.540330,30.073317 7.330740,27.300226 
	C12.784220,18.853563 17.997816,10.252023 23.152395,1.355385 
	C23.750000,1.000000 24.500000,1.000000 25.625000,1.000000 
	C20.731554,9.549761 15.575982,18.172113 10.144853,26.617252 
	C7.604583,30.567244 4.531854,34.174809 1.350225,37.968784 
	C1.000000,37.250000 1.000000,36.500000 1.000000,35.375000 
z"/>
<path fill="#34ABDC" opacity="1.000000" stroke="none" 
	d="
M201.000000,33.600006 
	C199.758698,35.137096 198.250931,36.090740 197.320648,37.441956 
	C192.394485,44.596996 187.613541,51.851994 182.266510,59.021557 
	C181.147827,57.887238 180.544861,56.803711 179.976318,55.539772 
	C180.010727,55.359364 180.077316,54.998119 180.077316,54.998116 
	C182.095566,53.265671 184.544006,51.841286 186.048218,49.740738 
	C189.943237,44.301582 193.367813,38.527802 197.111588,32.976227 
	C197.887421,31.825750 199.231735,31.058657 200.657028,30.057436 
	C201.000000,31.066669 201.000000,32.133339 201.000000,33.600006 
z"/>
<path fill="#B43868" opacity="1.000000" stroke="none" 
	d="
M44.978828,173.149536 
	C39.091251,182.227951 33.203678,191.306366 27.158051,200.692383 
	C26.250000,201.000000 25.500000,201.000000 24.375000,201.000000 
	C28.888124,193.333832 33.890812,185.736862 38.590149,177.956665 
	C39.893105,175.799469 40.295444,173.098312 41.462746,170.326233 
	C42.482719,170.401733 43.150928,170.797729 43.907829,171.119659 
	C43.996521,171.045624 43.819519,171.185623 43.910873,171.457642 
	C44.327763,172.202942 44.653297,172.676239 44.978828,173.149536 
z"/>
<path fill="#4CA6CE" opacity="1.000000" stroke="none" 
	d="
M90.333328,201.000000 
	C90.603378,198.683853 91.206757,196.367691 91.810493,194.051636 
	C83.048866,188.896439 77.276611,190.813934 73.019966,200.643631 
	C72.555557,201.000000 72.111107,201.000000 71.333328,201.000000 
	C72.882660,197.189163 74.765320,193.378311 77.161758,189.263916 
	C83.938774,190.032318 90.202003,191.104263 96.465240,192.176224 
	C95.016159,194.884369 93.567085,197.592529 92.059006,200.650330 
	C91.555557,201.000000 91.111107,201.000000 90.333328,201.000000 
z"/>
<path fill="#5992C3" opacity="1.000000" stroke="none" 
	d="
M163.330322,191.459610 
	C162.352676,194.394958 161.195374,197.337128 160.019043,200.639648 
	C159.250000,201.000000 158.500000,201.000000 157.375000,201.000000 
	C158.379822,198.538055 159.759644,196.076111 161.637726,193.294250 
	C162.403015,192.568130 162.670074,192.161942 162.937119,191.755753 
	C162.937119,191.755753 163.150650,191.466446 163.330322,191.459610 
z"/>
<path fill="#FDFDFD" opacity="1.000000" stroke="none" 
	d="
M179.941910,55.720184 
	C180.544861,56.803711 181.147827,57.887238 182.009583,59.260590 
	C184.802002,66.705742 187.335602,73.861069 189.939514,81.367310 
	C190.508606,91.537788 191.007370,101.357361 191.505859,111.599716 
	C189.199890,125.747787 185.102814,138.806427 176.775757,150.819916 
	C176.096405,151.404648 175.983398,151.677002 176.007767,152.006409 
	C176.007767,152.006409 176.000000,152.000000 175.756134,152.118286 
	C175.378067,152.561279 175.243851,152.885986 175.109634,153.210709 
	C175.109634,153.210709 174.994690,153.643707 174.658630,153.904419 
	C174.098862,154.361572 173.976044,154.608261 173.954102,154.905197 
	C173.954102,154.905197 173.977295,154.980164 173.707733,155.067505 
	C173.301407,155.450211 173.164627,155.745590 173.027832,156.040970 
	C173.027832,156.040970 172.996246,156.005005 172.661011,156.040283 
	C171.218185,157.712997 170.110580,159.350403 169.002975,160.987823 
	C168.942154,161.321457 168.790649,161.606949 168.071228,162.024109 
	C167.418915,162.499939 167.243851,162.795944 167.068802,163.091949 
	C167.068802,163.091949 167.013031,162.998718 166.711746,163.050354 
	C165.965958,163.781189 165.521454,164.460419 165.076950,165.139648 
	C164.578812,165.715576 164.080673,166.291504 163.075104,167.037903 
	C162.284775,167.403671 162.098145,167.667175 162.007782,167.998886 
	C161.810257,168.277908 161.612747,168.556931 160.960999,169.006042 
	C160.260300,169.349762 160.079651,169.575943 159.964813,169.854691 
	C159.964813,169.854691 159.961487,169.961197 159.561890,169.971100 
	C158.464233,170.688293 157.766159,171.395569 157.068085,172.102844 
	C157.068085,172.102844 157.004883,172.020859 156.675049,172.025635 
	C155.250992,173.052490 154.156784,174.074554 153.062576,175.096634 
	C153.062576,175.096634 153.020218,175.019623 152.822632,175.106918 
	C152.321991,175.361557 152.107010,175.606277 151.980148,175.928406 
	C151.980148,175.928406 151.981598,175.997360 151.770508,176.056702 
	C151.329010,176.247055 151.157120,176.432358 151.043716,176.671921 
	C151.043716,176.671921 150.689301,177.001877 150.188690,177.103622 
	C149.458908,177.472733 149.229706,177.740097 149.000504,178.007462 
	C148.651443,178.434708 148.302383,178.861954 147.459167,179.023834 
	C145.681900,178.580688 144.140778,177.858643 143.161942,178.322693 
	C139.608185,180.007462 136.334946,182.283249 132.783218,183.973145 
	C128.291428,186.110306 123.630722,187.892517 119.042870,189.827820 
	C118.676773,189.941010 118.310677,190.054199 117.509430,189.870682 
	C114.770813,186.660263 114.605873,189.296692 113.989853,190.762421 
	C113.237785,190.880646 112.485710,190.998871 111.062981,190.758087 
	C105.927811,190.202271 101.457832,190.087326 97.000053,189.789719 
	C90.116898,189.330185 83.242088,188.745682 76.363739,188.214172 
	C76.024750,188.182556 75.685768,188.150925 74.957886,187.738342 
	C74.021942,187.254227 73.474884,187.151047 72.927826,187.047882 
	C72.467216,187.003983 72.006599,186.960083 71.102287,186.608093 
	C70.433823,186.131577 70.181236,186.055542 69.900826,186.071869 
	C69.900826,186.071869 69.987091,186.012756 69.913139,185.674545 
	C68.193619,184.906326 66.548050,184.476303 64.902473,184.046295 
	C64.721664,184.023148 64.540848,183.999985 64.004753,183.649887 
	C63.413277,183.142242 63.146618,183.058746 62.849495,183.072479 
	C62.849495,183.072479 62.367924,183.077805 61.981491,182.739212 
	C61.240238,182.311493 60.885422,182.222366 60.530609,182.133240 
	C60.190201,182.146835 59.849792,182.160431 59.349079,182.146347 
	C58.971031,181.942780 58.753292,181.766907 58.311367,181.033417 
	C58.087177,180.475784 58.112556,180.019943 58.411758,179.960083 
	C58.980404,179.559036 59.249851,179.217850 59.519295,178.876663 
	C58.669498,178.597855 57.819706,178.319046 56.553314,178.034424 
	C55.304264,178.089508 54.471821,178.150391 53.639374,178.211273 
	C53.639374,178.211273 53.290905,178.123535 53.176552,177.679260 
	C53.038712,176.820267 53.015221,176.405533 52.958786,175.648499 
	C51.611404,174.211639 50.296974,173.117081 48.653770,172.021820 
	C47.886631,172.022827 47.448269,172.024521 46.701748,171.886505 
	C45.535568,171.559738 44.677544,171.372681 43.819519,171.185623 
	C43.819519,171.185623 43.996521,171.045624 43.933239,170.748779 
	C42.580437,169.633911 41.290913,168.815903 40.001389,167.997910 
	C40.001389,167.997910 40.000000,168.000000 39.913414,167.789093 
	C39.658836,167.309830 39.424126,167.127258 39.122707,167.030472 
	C39.122707,167.030472 38.973534,167.025085 38.870758,166.756836 
	C38.576839,166.248352 38.329773,166.103424 38.026787,166.053772 
	C37.731255,165.852936 37.435722,165.652100 36.957294,164.985550 
	C36.586548,164.267700 36.337765,164.114349 36.028046,164.059814 
	C36.028046,164.059814 35.950554,164.049500 35.874210,163.804932 
	C35.639645,163.299164 35.414997,163.122269 35.123928,163.029709 
	C35.123928,163.029709 34.969666,163.018799 34.885452,162.757965 
	C34.638958,162.266174 34.422176,162.111603 34.150890,162.033463 
	C34.150890,162.033463 33.966038,162.020081 33.888416,161.750000 
	C33.658195,161.257950 33.456123,161.098724 33.204586,161.002258 
	C33.204586,161.002258 33.014942,160.981857 32.917542,160.713959 
	C32.660999,160.231384 32.461422,160.065292 32.221413,159.947754 
	C32.221413,159.947754 32.065536,159.944260 32.055275,159.494629 
	C30.984304,156.698380 30.224197,154.148697 28.803219,152.045502 
	C25.347887,146.931244 21.585651,142.024353 17.947041,137.033920 
	C17.947042,137.033920 18.002634,137.005829 17.940762,136.829971 
	C17.769737,136.389374 17.590029,136.187439 17.339764,136.048294 
	C17.175222,135.617157 17.010683,135.186005 17.109840,134.216705 
	C16.248003,131.119904 15.122471,128.561264 13.996939,126.002640 
	C13.996940,126.002640 13.759272,125.769287 13.835661,125.264694 
	C13.640043,124.170280 13.368036,123.580467 13.096029,122.990654 
	C12.910576,122.669487 12.725124,122.348312 12.416370,121.774544 
	C11.681936,112.250374 11.070804,102.978806 10.480295,93.291832 
	C13.855450,63.351318 27.878927,40.386131 52.768555,24.089550 
	C54.013832,23.274199 55.160023,22.307514 56.605560,21.212132 
	C65.656937,17.958290 74.455101,14.903612 83.577240,11.767927 
	C91.399208,11.140251 98.897209,10.593580 106.777794,9.977313 
	C113.121819,10.978527 119.083260,12.049337 125.448624,13.208994 
	C131.615326,15.618281 137.378098,17.938723 143.479904,20.409153 
	C148.451050,23.616077 153.083176,26.673014 157.958023,29.893593 
	C162.483337,34.337910 166.765930,38.618584 171.267761,43.120148 
	C172.610046,44.926170 173.733124,46.511299 175.101410,48.289978 
	C175.346603,48.483532 175.432434,48.512672 175.543549,48.774570 
	C176.013962,49.417801 176.373276,49.799137 176.732590,50.180466 
	C176.732590,50.180466 176.785522,50.186729 176.803101,50.415218 
	C176.933517,50.770885 177.046356,50.898060 177.159210,51.025238 
	C177.224380,51.235638 177.289536,51.446033 177.459320,51.971378 
	C177.563934,52.286324 177.717728,52.487942 177.717728,52.487942 
	C177.717728,52.487942 177.912994,52.324821 177.912994,52.324821 
	C178.040787,52.521870 178.168564,52.718914 178.559021,53.340771 
	C178.821716,53.765579 179.117462,54.002636 179.117462,54.002636 
	C179.160248,54.185543 179.203033,54.368450 179.352936,54.932602 
	C179.511719,55.578384 179.672333,55.713829 179.941910,55.720184 
M98.860260,69.136314 
	C114.577621,69.186943 130.294983,69.237572 146.100540,69.818596 
	C146.732056,69.639801 147.363556,69.461006 148.686691,68.908463 
	C148.686691,57.767189 148.686691,46.625916 148.686691,35.505604 
	C130.216339,35.505604 111.979546,35.505604 92.845451,35.399151 
	C80.947472,35.399151 69.049492,35.399151 57.220196,35.399151 
	C57.220196,47.116314 57.220196,58.096699 56.999825,68.920227 
	C56.999825,68.920227 56.754463,69.034088 56.028412,69.134720 
	C55.361664,70.298920 54.116539,71.471756 54.133781,72.625725 
	C54.191547,76.490982 54.602119,80.362328 55.104195,84.201721 
	C55.232403,85.182159 56.197235,86.053200 57.010918,87.577606 
	C57.079178,87.782059 57.147438,87.986511 57.059013,89.092690 
	C57.119980,100.104073 57.180943,111.115463 57.016239,122.552017 
	C57.016239,122.552017 56.793114,122.978531 56.040546,123.216599 
	C55.739456,123.590012 55.176022,123.962784 55.175117,124.336922 
	C55.140148,138.790939 55.140526,153.245209 55.245956,167.698639 
	C55.249035,168.120697 56.432953,168.534149 56.999470,168.997742 
	C56.999470,168.997742 57.048916,168.932770 57.184929,169.739456 
	C57.675419,170.127731 58.163498,170.851486 58.656754,170.855042 
	C70.125816,170.937469 81.599335,171.083298 93.059677,170.768036 
	C94.379829,170.731720 96.733940,168.046783 96.734276,166.589432 
	C96.737175,154.162231 96.430649,141.729965 95.934715,129.310486 
	C95.773285,125.267982 96.875114,123.826111 101.150200,123.899483 
	C115.776360,124.150475 130.411331,123.866676 145.038788,124.076859 
	C149.347778,124.138779 151.096497,122.664452 151.033279,118.377411 
	C150.901764,109.459030 151.036774,100.536751 150.914825,91.618095 
	C150.902740,90.734818 149.872131,89.865463 149.000290,88.688797 
	C149.000290,88.688797 148.893356,88.267319 148.864670,87.540298 
	C147.327194,85.190964 146.029617,85.189255 144.090576,88.127533 
	C128.059433,88.080406 112.028282,88.033272 96.001091,87.052322 
	C96.002281,82.664856 95.838280,78.267769 96.092636,73.895035 
	C96.183907,72.325775 97.283791,70.815193 98.860260,69.136314 
M47.483597,170.583771 
	C47.483597,170.583771 47.421329,170.477661 47.483597,170.583771 
z"/>
<path fill="#F0F5F8" opacity="1.000000" stroke="none" 
	d="
M119.430847,189.867371 
	C123.630722,187.892517 128.291428,186.110306 132.783218,183.973145 
	C136.334946,182.283249 139.608185,180.007462 143.161942,178.322693 
	C144.140778,177.858643 145.681900,178.580688 147.182800,179.087112 
	C147.400589,179.415756 147.451248,179.607254 147.442307,179.703430 
	C138.228516,183.168701 129.023682,186.537796 119.430847,189.867371 
z"/>
<path fill="#FED3E1" opacity="1.000000" stroke="none" 
	d="
M169.310684,160.871521 
	C170.110580,159.350403 171.218185,157.712997 172.681763,156.051239 
	C171.897949,157.602997 170.758163,159.179092 169.310684,160.871521 
z"/>
<path fill="#F0F5F8" opacity="1.000000" stroke="none" 
	d="
M153.388214,175.058868 
	C154.156784,174.074554 155.250992,173.052490 156.720062,172.051163 
	C155.967911,173.054977 154.840881,174.038040 153.388214,175.058868 
z"/>
<path fill="#F0F5F8" opacity="1.000000" stroke="none" 
	d="
M157.372894,172.048462 
	C157.766159,171.395569 158.464233,170.688293 159.509476,169.961548 
	C159.130341,170.626099 158.404037,171.310104 157.372894,172.048462 
z"/>
<path fill="#FED3E1" opacity="1.000000" stroke="none" 
	d="
M165.377106,165.065369 
	C165.521454,164.460419 165.965958,163.781189 166.749786,163.089264 
	C166.618484,163.714737 166.147873,164.352921 165.377106,165.065369 
z"/>
<path fill="#707BAA" opacity="1.000000" stroke="none" 
	d="
M162.682068,191.834808 
	C162.670074,192.161942 162.403015,192.568130 161.897354,193.049988 
	C161.914825,192.721741 162.170929,192.317810 162.682068,191.834808 
z"/>
<path fill="#5992C3" opacity="1.000000" stroke="none" 
	d="
M163.838196,190.215515 
	C164.131393,190.002853 164.323013,190.025528 164.802567,190.083496 
	C164.866562,190.392334 164.642639,190.665878 164.145233,190.942368 
	C163.826691,190.780472 163.781662,190.615646 163.838196,190.215515 
z"/>
<path fill="#FED3E1" opacity="1.000000" stroke="none" 
	d="
M167.327072,163.021637 
	C167.243851,162.795944 167.418915,162.499939 167.849945,162.130295 
	C167.932388,162.354889 167.758865,162.653107 167.327072,163.021637 
z"/>
<path fill="#FED3E1" opacity="1.000000" stroke="none" 
	d="
M173.258224,155.940796 
	C173.164627,155.745590 173.301407,155.450211 173.670258,155.055862 
	C173.764435,155.251465 173.626526,155.546036 173.258224,155.940796 
z"/>
<path fill="#FED3E1" opacity="1.000000" stroke="none" 
	d="
M174.184814,154.857224 
	C173.976044,154.608261 174.098862,154.361572 174.512238,154.073975 
	C174.825562,154.334229 174.730087,154.609711 174.184814,154.857224 
z"/>
<path fill="#F0F5F8" opacity="1.000000" stroke="none" 
	d="
M149.268204,177.952118 
	C149.229706,177.740097 149.458908,177.472733 149.948639,177.135269 
	C149.984772,177.342361 149.760330,177.619568 149.268204,177.952118 
z"/>
<path fill="#F0F5F8" opacity="1.000000" stroke="none" 
	d="
M162.259888,167.938721 
	C162.098145,167.667175 162.284775,167.403671 162.793457,167.110046 
	C162.850143,167.300674 162.681076,167.589615 162.259888,167.938721 
z"/>
<path fill="#F0F5F8" opacity="1.000000" stroke="none" 
	d="
M160.205017,169.825714 
	C160.079651,169.575943 160.260300,169.349762 160.703033,169.078018 
	C160.895142,169.334015 160.743759,169.606293 160.205017,169.825714 
z"/>
<path fill="#FED3E1" opacity="1.000000" stroke="none" 
	d="
M175.363953,153.103851 
	C175.243851,152.885986 175.378067,152.561279 175.759583,152.122253 
	C175.877319,152.337646 175.747787,152.667328 175.363953,153.103851 
z"/>
<path fill="#FED3E1" opacity="1.000000" stroke="none" 
	d="
M176.237946,151.933929 
	C175.983398,151.677002 176.096405,151.404648 176.551529,151.089874 
	C176.848129,151.342941 176.752090,151.633286 176.237946,151.933929 
z"/>
<path fill="#F0F5F8" opacity="1.000000" stroke="none" 
	d="
M152.241547,175.898209 
	C152.107010,175.606277 152.321991,175.361557 152.863556,175.122971 
	C152.902344,175.323822 152.702637,175.595917 152.241547,175.898209 
z"/>
<path fill="#F0F5F8" opacity="1.000000" stroke="none" 
	d="
M151.258972,176.667725 
	C151.157120,176.432358 151.329010,176.247055 151.737915,176.045380 
	C151.919556,176.301025 151.772156,176.530609 151.258972,176.667725 
z"/>
<path fill="#5992C3" opacity="1.000000" stroke="none" 
	d="
M165.300232,189.961395 
	C165.107605,189.746887 165.238525,189.461090 165.686554,189.100098 
	C165.897202,189.319962 165.770554,189.608368 165.300232,189.961395 
z"/>
<path fill="#F0F5F8" opacity="1.000000" stroke="none" 
	d="
M17.977072,137.392288 
	C21.585651,142.024353 25.347887,146.931244 28.803219,152.045502 
	C30.224197,154.148697 30.984304,156.698380 32.068066,159.417725 
	C31.695356,159.622330 31.299599,159.454208 30.749149,159.143158 
	C27.305033,154.097153 24.015608,149.194046 20.537132,144.013519 
	C19.567757,141.740936 18.787430,139.745804 17.977072,137.392288 
z"/>
<path fill="#F0F5F8" opacity="1.000000" stroke="none" 
	d="
M39.991852,168.208054 
	C41.290913,168.815903 42.580437,169.633911 43.844551,170.822815 
	C43.150928,170.797729 42.482719,170.401733 41.533813,169.915680 
	C41.253120,169.825607 41.222305,169.834427 41.127659,169.563507 
	C40.712269,169.138229 40.391529,168.983871 40.070786,168.829514 
	C40.070789,168.829514 39.982311,168.418198 39.991852,168.208054 
z"/>
<path fill="#F0F5F8" opacity="1.000000" stroke="none" 
	d="
M39.116402,167.258087 
	C39.424126,167.127258 39.658836,167.309830 39.914421,167.788315 
	C40.002007,167.998459 39.555420,168.011276 39.334743,167.976181 
	C39.114067,167.941086 39.110100,167.485703 39.116402,167.258087 
z"/>
<path fill="#B43868" opacity="1.000000" stroke="none" 
	d="
M40.155869,169.096222 
	C40.391529,168.983871 40.712269,169.138229 41.124306,169.550461 
	C40.890717,169.659882 40.565834,169.511398 40.155869,169.096222 
z"/>
<path fill="#539DC9" opacity="1.000000" stroke="none" 
	d="
M176.785248,49.853287 
	C176.373276,49.799137 176.013962,49.417801 175.588501,48.780319 
	C175.960876,48.858147 176.399399,49.192127 176.785248,49.853287 
z"/>
<path fill="#34ABDC" opacity="1.000000" stroke="none" 
	d="
M179.318375,53.873852 
	C179.117462,54.002636 178.821716,53.765579 178.820724,53.576595 
	C178.990494,53.144203 179.161255,52.900795 179.332016,52.657387 
	C179.394440,53.019947 179.456863,53.382507 179.318375,53.873852 
z"/>
<path fill="#539DC9" opacity="1.000000" stroke="none" 
	d="
M177.919769,52.281807 
	C177.912994,52.324821 177.717728,52.487942 177.717728,52.487942 
	C177.717728,52.487942 177.563934,52.286324 177.676270,52.220558 
	C177.788589,52.154789 177.926559,52.238796 177.919769,52.281807 
z"/>
<path fill="#34ABDC" opacity="1.000000" stroke="none" 
	d="
M177.314362,50.903038 
	C177.046356,50.898060 176.933517,50.770885 176.808990,50.389217 
	C177.021347,50.350098 177.245438,50.565464 177.314362,50.903038 
z"/>
<path fill="#539DC9" opacity="1.000000" stroke="none" 
	d="
M179.976318,55.539772 
	C179.672333,55.713829 179.511719,55.578384 179.524872,55.155830 
	C179.589676,54.997814 179.832733,54.934383 179.955017,54.966251 
	C180.077316,54.998119 180.010727,55.359364 179.976318,55.539772 
z"/>
<path fill="#F0F5F8" opacity="1.000000" stroke="none" 
	d="
M13.981048,126.377640 
	C15.122471,128.561264 16.248003,131.119904 17.093266,133.869568 
	C15.863715,131.624634 14.914436,129.188629 13.981048,126.377640 
z"/>
<path fill="#F0F5F8" opacity="1.000000" stroke="none" 
	d="
M13.063294,123.325478 
	C13.368036,123.580467 13.640043,124.170280 13.874984,125.102867 
	C13.568798,124.850525 13.299679,124.255417 13.063294,123.325478 
z"/>
<path fill="#F0F5F8" opacity="1.000000" stroke="none" 
	d="
M17.309807,136.278595 
	C17.590029,136.187439 17.769737,136.389374 17.922956,136.855560 
	C17.612429,137.031647 17.383371,136.848938 17.309807,136.278595 
z"/>
<path fill="#D0F7FC" opacity="1.000000" stroke="none" 
	d="
M47.009899,172.026199 
	C47.448269,172.024521 47.886631,172.022827 48.687817,172.354614 
	C49.428291,173.727646 49.805946,174.767181 50.112583,175.883026 
	C50.041569,175.959305 49.900837,176.113068 49.900837,176.113068 
	C48.672211,175.309509 47.443581,174.505966 46.257374,173.286011 
	C46.536499,172.588455 46.773197,172.307327 47.009899,172.026199 
z"/>
<path fill="#D0F7FC" opacity="1.000000" stroke="none" 
	d="
M58.112556,180.019943 
	C58.112556,180.019943 58.087177,180.475784 58.054195,180.701538 
	C56.685310,180.207657 55.349411,179.488007 53.826443,178.489807 
	C54.471821,178.150391 55.304264,178.089508 56.673035,178.292953 
	C57.510422,179.044830 57.811493,179.532394 58.112556,180.019943 
z"/>
<path fill="#D0F7FC" opacity="1.000000" stroke="none" 
	d="
M52.991730,175.990814 
	C53.015221,176.405533 53.038712,176.820267 53.056038,177.546021 
	C52.120770,177.445663 51.191666,177.034286 50.081699,176.367996 
	C49.900837,176.113068 50.041569,175.959305 50.458233,175.940979 
	C51.580509,175.945389 52.286118,175.968094 52.991730,175.990814 
z"/>
<path fill="#F0F5F8" opacity="1.000000" stroke="none" 
	d="
M46.701744,171.886505 
	C46.773197,172.307327 46.536499,172.588455 46.070328,173.028137 
	C45.840862,173.186661 45.408058,173.210754 45.193443,173.180145 
	C44.653297,172.676239 44.327763,172.202942 43.910873,171.457642 
	C44.677544,171.372681 45.535568,171.559738 46.701744,171.886505 
z"/>
<path fill="#F0F5F8" opacity="1.000000" stroke="none" 
	d="
M76.432381,188.418457 
	C83.242088,188.745682 90.116898,189.330185 97.000053,189.789719 
	C101.457832,190.087326 105.927811,190.202271 110.686096,190.690323 
	C106.419312,191.333572 101.858742,191.685562 96.881706,192.106888 
	C90.202003,191.104263 83.938774,190.032318 77.251770,188.931976 
	C76.828003,188.903580 76.501022,188.622742 76.432381,188.418457 
z"/>
<path fill="#F0F5F8" opacity="1.000000" stroke="none" 
	d="
M65.097366,184.335236 
	C66.548050,184.476303 68.193619,184.906326 69.884857,185.718521 
	C68.384438,185.608536 66.838348,185.116364 65.097366,184.335236 
z"/>
<path fill="#F0F5F8" opacity="1.000000" stroke="none" 
	d="
M73.103577,187.279083 
	C73.474884,187.151047 74.021942,187.254227 74.758949,187.567474 
	C74.392372,187.688461 73.835846,187.599380 73.103577,187.279083 
z"/>
<path fill="#F0F5F8" opacity="1.000000" stroke="none" 
	d="
M60.700562,182.365082 
	C60.885422,182.222366 61.240238,182.311493 61.779812,182.607635 
	C61.599884,182.742081 61.235195,182.669495 60.700562,182.365082 
z"/>
<path fill="#F0F5F8" opacity="1.000000" stroke="none" 
	d="
M62.963081,183.270905 
	C63.146618,183.058746 63.413277,183.142242 63.786789,183.484787 
	C63.924114,183.646622 63.470791,183.699463 63.470791,183.699463 
	C63.470791,183.699463 63.076664,183.469315 62.963081,183.270905 
z"/>
<path fill="#F0F5F8" opacity="1.000000" stroke="none" 
	d="
M69.992554,186.273834 
	C70.181236,186.055542 70.433823,186.131577 70.790169,186.451050 
	C70.921753,186.602097 70.483658,186.667389 70.483658,186.667389 
	C70.483658,186.667389 70.084290,186.475784 69.992554,186.273834 
z"/>
<path fill="#F0F5F8" opacity="1.000000" stroke="none" 
	d="
M114.424065,190.819336 
	C114.605873,189.296692 114.770813,186.660263 117.220871,189.867111 
	C117.367485,190.160248 117.381950,190.322754 117.428207,190.390900 
	C116.602409,190.598099 115.730339,190.737183 114.424065,190.819336 
z"/>
<path fill="#F0F5F8" opacity="1.000000" stroke="none" 
	d="
M32.249279,160.163773 
	C32.461422,160.065292 32.660999,160.231384 32.910610,160.618835 
	C32.677891,160.798264 32.436581,160.660995 32.249279,160.163773 
z"/>
<path fill="#F0F5F8" opacity="1.000000" stroke="none" 
	d="
M33.242882,161.211426 
	C33.456123,161.098724 33.658195,161.257950 33.889503,161.657349 
	C33.643932,161.854675 33.414925,161.716629 33.242882,161.211426 
z"/>
<path fill="#F0F5F8" opacity="1.000000" stroke="none" 
	d="
M34.186150,162.251266 
	C34.422176,162.111603 34.638958,162.266174 34.885811,162.680634 
	C34.643841,162.878113 34.394184,162.746414 34.186150,162.251266 
z"/>
<path fill="#F0F5F8" opacity="1.000000" stroke="none" 
	d="
M35.160641,163.260101 
	C35.414997,163.122269 35.639645,163.299164 35.869160,163.766174 
	C35.586449,163.975479 35.338749,163.814987 35.160641,163.260101 
z"/>
<path fill="#F0F5F8" opacity="1.000000" stroke="none" 
	d="
M36.086708,164.287994 
	C36.337765,164.114349 36.586548,164.267700 36.869106,164.721588 
	C36.623581,164.923065 36.350765,164.787338 36.086708,164.287994 
z"/>
<path fill="#F0F5F8" opacity="1.000000" stroke="none" 
	d="
M38.089535,166.277466 
	C38.329773,166.103424 38.576839,166.248352 38.868134,166.682251 
	C38.630535,166.894104 38.358532,166.769180 38.089535,166.277466 
z"/>
<path fill="#08BEF0" opacity="1.000000" stroke="none" 
	d="
M56.793114,122.978531 
	C56.793114,122.978531 57.016239,122.552017 57.574371,122.268585 
	C69.995941,122.113724 81.859367,122.242287 93.872536,122.789909 
	C94.022270,138.363907 94.022270,153.518829 94.022270,168.932770 
	C81.208481,168.932770 69.128700,168.932770 57.048916,168.932770 
	C57.048916,168.932770 56.999470,168.997742 57.024445,168.509903 
	C56.963982,153.007553 56.878548,137.993042 56.793114,122.978531 
z"/>
<path fill="#030609" opacity="1.000000" stroke="none" 
	d="
M93.722801,122.370850 
	C81.859367,122.242287 69.995941,122.113724 57.687210,122.056000 
	C57.180943,111.115463 57.119980,100.104073 57.589340,88.698715 
	C70.038818,88.355949 81.957970,88.407158 94.000275,88.878967 
	C94.275108,100.113556 94.426781,110.927536 94.359818,121.892441 
	C94.001724,122.152527 93.862259,122.261688 93.722801,122.370850 
z"/>
<path fill="#030203" opacity="1.000000" stroke="none" 
	d="
M57.220196,69.077087 
	C57.220196,58.096699 57.220196,47.116314 57.220196,35.399151 
	C69.049492,35.399151 80.947472,35.399151 93.400055,35.877331 
	C93.905365,47.212662 93.856079,58.069813 93.352058,68.969955 
	C81.004944,69.034317 69.112572,69.055702 57.220196,69.077087 
z"/>
<path fill="#0CBCEE" opacity="1.000000" stroke="none" 
	d="
M57.110008,68.998657 
	C69.112572,69.055702 81.004944,69.034317 93.470398,69.080811 
	C94.043472,69.148674 94.332787,69.295212 94.267448,69.741280 
	C94.270828,76.098900 94.339554,82.010452 94.250992,88.031837 
	C94.093704,88.141670 93.877113,88.458366 93.877113,88.458359 
	C81.957970,88.407158 70.038818,88.355949 57.667686,88.247849 
	C57.147438,87.986511 57.079178,87.782059 56.984947,86.817795 
	C56.890804,80.383354 56.822632,74.708725 56.754463,69.034088 
	C56.754463,69.034088 56.999825,68.920227 57.110008,68.998657 
z"/>
<path fill="#F0F5F8" opacity="1.000000" stroke="none" 
	d="
M57.116920,169.336121 
	C69.128700,168.932770 81.208481,168.932770 94.022270,168.932770 
	C94.022270,153.518829 94.022270,138.363907 93.872536,122.789909 
	C93.862259,122.261688 94.001724,122.152527 94.758316,122.008621 
	C113.198723,121.973885 131.022003,121.973885 149.314255,121.973885 
	C149.314255,110.502098 149.314255,99.745872 149.314255,88.989647 
	C149.872131,89.865463 150.902740,90.734818 150.914825,91.618095 
	C151.036774,100.536751 150.901764,109.459030 151.033279,118.377411 
	C151.096497,122.664452 149.347778,124.138779 145.038788,124.076859 
	C130.411331,123.866676 115.776360,124.150475 101.150200,123.899483 
	C96.875114,123.826111 95.773285,125.267982 95.934715,129.310486 
	C96.430649,141.729965 96.737175,154.162231 96.734276,166.589432 
	C96.733940,168.046783 94.379829,170.731720 93.059677,170.768036 
	C81.599335,171.083298 70.125816,170.937469 58.656754,170.855042 
	C58.163498,170.851486 57.675419,170.127731 57.116920,169.336121 
z"/>
<path fill="#C33C5C" opacity="1.000000" stroke="none" 
	d="
M149.157272,88.839218 
	C149.314255,99.745872 149.314255,110.502098 149.314255,121.973885 
	C131.022003,121.973885 113.198723,121.973885 94.976944,121.857697 
	C94.426781,110.927536 94.275108,100.113556 94.000275,88.878967 
	C93.877113,88.458366 94.093704,88.141670 94.510269,88.125885 
	C95.283592,88.068771 95.640366,88.027458 95.997131,87.986145 
	C112.028282,88.033272 128.059433,88.080406 144.928345,88.136246 
	C146.808533,88.185745 147.850937,88.226532 148.893356,88.267319 
	C148.893356,88.267319 149.000290,88.688797 149.157272,88.839218 
M141.313446,89.976173 
	C127.852859,89.974525 114.389702,90.119186 100.933273,89.881798 
	C96.913979,89.810883 95.743790,91.116127 95.898132,94.999138 
	C96.168533,101.801849 96.115234,108.626846 95.920677,115.434593 
	C95.825119,118.778252 96.719200,120.152229 100.354828,120.105820 
	C114.477829,119.925545 128.606171,119.910652 142.728775,120.105545 
	C146.993088,120.164391 148.228546,118.487099 148.079147,114.489380 
	C147.843491,108.183174 147.780136,101.851135 148.080505,95.550850 
	C148.293961,91.073357 146.510880,89.428177 141.313446,89.976173 
z"/>
<path fill="#BA3E5C" opacity="1.000000" stroke="none" 
	d="
M93.925133,69.037819 
	C93.856079,58.069813 93.905365,47.212662 93.848701,35.930557 
	C111.979546,35.505604 130.216339,35.505604 148.686691,35.505604 
	C148.686691,46.625916 148.686691,57.767189 148.013153,69.019958 
	C146.897186,69.183701 146.454773,69.235947 146.012344,69.288193 
	C130.294983,69.237572 114.577621,69.186943 98.036850,69.124924 
	C96.253220,69.174088 95.293007,69.234650 94.332787,69.295212 
	C94.332787,69.295212 94.043472,69.148674 93.925133,69.037819 
M142.266663,36.961903 
	C128.452896,36.961658 114.637863,37.063450 100.826248,36.891361 
	C97.252907,36.846844 95.725357,37.689384 95.876366,41.585133 
	C96.153351,48.730835 96.072472,55.897915 95.901268,63.050346 
	C95.814621,66.670517 97.099564,68.102997 100.821373,68.065414 
	C114.633728,67.925934 128.448685,67.954857 142.261871,68.044777 
	C146.218674,68.070526 148.113525,66.518509 148.053284,62.446102 
	C147.952362,55.624027 147.921066,48.796490 148.086395,41.976727 
	C148.172943,38.407463 146.964279,36.563129 142.266663,36.961903 
z"/>
<path fill="#F0F5F8" opacity="1.000000" stroke="none" 
	d="
M56.416832,123.097565 
	C56.878548,137.993042 56.963982,153.007553 57.057854,168.486847 
	C56.432953,168.534149 55.249035,168.120697 55.245956,167.698639 
	C55.140526,153.245209 55.140148,138.790939 55.175117,124.336922 
	C55.176022,123.962784 55.739456,123.590012 56.416832,123.097565 
z"/>
<path fill="#F0F5F8" opacity="1.000000" stroke="none" 
	d="
M94.267448,69.741280 
	C95.293007,69.234650 96.253220,69.174088 97.568390,69.195679 
	C97.283791,70.815193 96.183907,72.325775 96.092636,73.895035 
	C95.838280,78.267769 96.002281,82.664856 95.999115,87.519234 
	C95.640366,88.027458 95.283592,88.068771 94.667549,88.016052 
	C94.339554,82.010452 94.270828,76.098900 94.267448,69.741280 
z"/>
<path fill="#F0F5F8" opacity="1.000000" stroke="none" 
	d="
M56.391438,69.084404 
	C56.822632,74.708725 56.890804,80.383354 56.868328,86.516251 
	C56.197235,86.053200 55.232403,85.182159 55.104195,84.201721 
	C54.602119,80.362328 54.191547,76.490982 54.133781,72.625725 
	C54.116539,71.471756 55.361664,70.298920 56.391438,69.084404 
z"/>
<path fill="#F0F5F8" opacity="1.000000" stroke="none" 
	d="
M52.958782,175.648499 
	C52.286118,175.968094 51.580509,175.945389 50.529247,175.864700 
	C49.805946,174.767181 49.428291,173.727646 49.016590,172.355316 
	C50.296974,173.117081 51.611404,174.211639 52.958782,175.648499 
z"/>
<path fill="#F0F5F8" opacity="1.000000" stroke="none" 
	d="
M148.879013,87.903809 
	C147.850937,88.226532 146.808533,88.185745 145.389404,88.039444 
	C146.029617,85.189255 147.327194,85.190964 148.879013,87.903809 
z"/>
<path fill="#F0F5F8" opacity="1.000000" stroke="none" 
	d="
M58.411758,179.960083 
	C57.811493,179.532394 57.510422,179.044830 57.089638,178.298767 
	C57.819706,178.319046 58.669498,178.597855 59.519295,178.876663 
	C59.249851,179.217850 58.980404,179.559036 58.411758,179.960083 
z"/>
<path fill="#F0F5F8" opacity="1.000000" stroke="none" 
	d="
M146.056442,69.553391 
	C146.454773,69.235947 146.897186,69.183701 147.667343,69.206833 
	C147.363556,69.461006 146.732056,69.639801 146.056442,69.553391 
z"/>
<path fill="#F0F5F8" opacity="1.000000" stroke="none" 
	d="
M47.452461,170.530716 
	C47.421329,170.477661 47.483597,170.583771 47.452461,170.530716 
z"/>
<path fill="#EC1A49" opacity="1.000000" stroke="none" 
	d="
M141.788330,89.976532 
	C146.510880,89.428177 148.293961,91.073357 148.080505,95.550850 
	C147.780136,101.851135 147.843491,108.183174 148.079147,114.489380 
	C148.228546,118.487099 146.993088,120.164391 142.728775,120.105545 
	C128.606171,119.910652 114.477829,119.925545 100.354828,120.105820 
	C96.719200,120.152229 95.825119,118.778252 95.920677,115.434593 
	C96.115234,108.626846 96.168533,101.801849 95.898132,94.999138 
	C95.743790,91.116127 96.913979,89.810883 100.933273,89.881798 
	C114.389702,90.119186 127.852859,89.974525 141.788330,89.976532 
z"/>
<path fill="#EC1949" opacity="1.000000" stroke="none" 
	d="
M142.736038,36.963100 
	C146.964279,36.563129 148.172943,38.407463 148.086395,41.976727 
	C147.921066,48.796490 147.952362,55.624027 148.053284,62.446102 
	C148.113525,66.518509 146.218674,68.070526 142.261871,68.044777 
	C128.448685,67.954857 114.633728,67.925934 100.821373,68.065414 
	C97.099564,68.102997 95.814621,66.670517 95.901268,63.050346 
	C96.072472,55.897915 96.153351,48.730835 95.876366,41.585133 
	C95.725357,37.689384 97.252907,36.846844 100.826248,36.891361 
	C114.637863,37.063450 128.452896,36.961658 142.736038,36.963100 
z"/>
</svg>